<svg id="Layer_1" data-name="Layer 1" xmlns="http://www.w3.org/2000/svg" viewBox="0 0 418.09 327.47"><defs><style>.cls-1{fill:#fff;}</style></defs><path class="cls-1" d="M91.42,47.17A26.49,26.49,0,0,0,64.78,73.5v.06H91.42Z"/><path class="cls-1" d="M91.42,73.56h26.64V73.5A26.49,26.49,0,0,0,91.42,47.17Z"/><path class="cls-1" d="M198,47.17A26.49,26.49,0,0,0,171.35,73.5v.06H198Z"/><path class="cls-1" d="M198,73.56h26.64V73.5A26.49,26.49,0,0,0,198,47.17Z"/><path class="cls-1" d="M91.42,100A26.49,26.49,0,0,1,64.78,73.62v-.06H91.42V100"/><path class="cls-1" d="M91.42,100a26.49,26.49,0,0,0-26.64,26.33v.06H91.42Z"/><path class="cls-1" d="M91.42,100a26.49,26.49,0,0,0,26.65-26.33v-.06H91.42Z"/><path class="cls-1" d="M144.71,100a26.48,26.48,0,0,0-26.64,26.33v.06h26.64Z"/><path class="cls-1" d="M91.42,126.34h26.64v-.06A26.49,26.49,0,0,0,91.42,100Z"/><path class="cls-1" d="M198,100a26.49,26.49,0,0,1-26.65-26.33v-.06H198V100"/><path class="cls-1" d="M198,100a26.49,26.49,0,0,0-26.65,26.33v.06H198Z"/><path class="cls-1" d="M144.71,126.34h26.64v-.06A26.48,26.48,0,0,0,144.71,100Z"/><path class="cls-1" d="M198,100a26.49,26.49,0,0,0,26.64-26.33v-.06H198Z"/><path class="cls-1" d="M198,126.34h26.64v-.06A26.49,26.49,0,0,0,198,100Z"/><path class="cls-1" d="M118.07,73.64h0A26.5,26.5,0,0,1,91.42,100h0a26.49,26.49,0,0,1,26.65,26.3h0A26.48,26.48,0,0,1,144.71,100h0A26.49,26.49,0,0,1,118.07,73.64Z"/><path class="cls-1" d="M171.35,73.64h0A26.49,26.49,0,0,1,144.71,100h0a26.48,26.48,0,0,1,26.64,26.3h0A26.49,26.49,0,0,1,198,100h0A26.5,26.5,0,0,1,171.35,73.64Z"/><path class="cls-1" d="M91.42,152.72a26.48,26.48,0,0,1-26.64-26.33v0H91.42v26.38"/><path class="cls-1" d="M91.42,152.72a26.49,26.49,0,0,0-26.64,26.34v.05H91.42Z"/><path class="cls-1" d="M91.42,152.72a26.49,26.49,0,0,0,26.65-26.33v0H91.42Z"/><path class="cls-1" d="M144.71,152.72a26.48,26.48,0,0,1-26.64-26.33v0h26.64v26.38"/><path class="cls-1" d="M91.42,179.11h26.64v-.05a26.49,26.49,0,0,0-26.65-26.34Z"/><path class="cls-1" d="M144.71,152.72a26.48,26.48,0,0,0,26.64-26.33v0H144.71Z"/><path class="cls-1" d="M198,152.72a26.49,26.49,0,0,1-26.65-26.33v0H198v26.38"/><path class="cls-1" d="M198,152.72a26.49,26.49,0,0,0-26.65,26.34v.05H198Z"/><path class="cls-1" d="M198,152.72a26.48,26.48,0,0,0,26.64-26.33v0H198Z"/><path class="cls-1" d="M198,179.11h26.64v-.05A26.49,26.49,0,0,0,198,152.72Z"/><path class="cls-1" d="M91.42,205.5a26.49,26.49,0,0,1-26.64-26.33v-.06H91.42V205.5"/><path class="cls-1" d="M91.42,205.5a26.49,26.49,0,0,0,26.65-26.33v-.06H91.42Z"/><path class="cls-1" d="M198,205.5a26.49,26.49,0,0,1-26.65-26.33v-.06H198V205.5"/><path class="cls-1" d="M198,205.5a26.49,26.49,0,0,0,26.64-26.33v-.06H198Z"/><path class="cls-1" d="M267.17,47a26.49,26.49,0,0,0-26.64,26.33v.06h26.64Z"/><path class="cls-1" d="M267.17,73.39h26.65v-.06A26.49,26.49,0,0,0,267.17,47Z"/><path class="cls-1" d="M373.75,47a26.49,26.49,0,0,0-26.64,26.33v.06h26.64Z"/><path class="cls-1" d="M373.75,73.39H400.4v-.06A26.49,26.49,0,0,0,373.75,47Z"/><path class="cls-1" d="M267.17,99.78a26.49,26.49,0,0,1-26.64-26.33v-.06h26.64V99.78"/><path class="cls-1" d="M267.17,99.78a26.49,26.49,0,0,0,26.65-26.33v-.06H267.17Z"/><path class="cls-1" d="M320.46,99.78a26.49,26.49,0,0,0-26.64,26.33v.06h26.64Z"/><path class="cls-1" d="M373.75,99.78a26.49,26.49,0,0,1-26.64-26.33v-.06h26.64V99.78"/><path class="cls-1" d="M320.46,126.17h26.65v-.06a26.49,26.49,0,0,0-26.65-26.33Z"/><path class="cls-1" d="M373.75,99.78A26.49,26.49,0,0,0,400.4,73.45v-.06H373.75Z"/><path class="cls-1" d="M293.82,73.47h0a26.5,26.5,0,0,1-26.65,26.31h0a26.49,26.49,0,0,1,26.65,26.3h0a26.48,26.48,0,0,1,26.64-26.3h0A26.49,26.49,0,0,1,293.82,73.47Z"/><path class="cls-1" d="M347.11,73.47h0a26.5,26.5,0,0,1-26.65,26.31h0a26.49,26.49,0,0,1,26.65,26.3h0a26.48,26.48,0,0,1,26.64-26.3h0A26.49,26.49,0,0,1,347.11,73.47Z"/><path class="cls-1" d="M320.46,152.55a26.49,26.49,0,0,1-26.64-26.33v0h26.64v26.38"/><path class="cls-1" d="M320.46,152.55a26.49,26.49,0,0,0-26.64,26.34v.05h26.64Z"/><path class="cls-1" d="M320.46,152.55a26.49,26.49,0,0,0,26.65-26.33v0H320.46Z"/><path class="cls-1" d="M320.46,178.94h26.65v-.05a26.49,26.49,0,0,0-26.65-26.34Z"/><path class="cls-1" d="M320.46,205.33A26.49,26.49,0,0,1,293.82,179v-.06h26.64v26.39"/><path class="cls-1" d="M320.46,205.33A26.49,26.49,0,0,0,347.11,179v-.06H320.46Z"/><path class="cls-1" d="M106.67,291.06a24.36,24.36,0,0,1-10.88-2.31A22.6,22.6,0,0,1,88,282.57a27.45,27.45,0,0,1-4.65-8.68,31.32,31.32,0,0,1-1.57-9.84,31.65,31.65,0,0,1,1.57-9.88A27.28,27.28,0,0,1,88,245.46a22.29,22.29,0,0,1,7.78-6.15A24.63,24.63,0,0,1,106.67,237a26,26,0,0,1,8.78,1.32,19.87,19.87,0,0,1,6.12,3.38,20.32,20.32,0,0,1,4,4.4,21.58,21.58,0,0,1,2.27,4.41,31.4,31.4,0,0,1,1.25,4.69h-7a20,20,0,0,0-1.42-4.08,14.09,14.09,0,0,0-2.56-3.52,13.19,13.19,0,0,0-4.48-2.95,17.8,17.8,0,0,0-6.9-1.18,16.61,16.61,0,0,0-7.82,1.75,16.36,16.36,0,0,0-5.58,4.69A20.91,20.91,0,0,0,90,256.55a26.12,26.12,0,0,0,0,15,20.91,20.91,0,0,0,3.34,6.61,16.36,16.36,0,0,0,5.58,4.69,16.73,16.73,0,0,0,7.82,1.74,17.42,17.42,0,0,0,6.9-1.2,14,14,0,0,0,4.48-3,13.42,13.42,0,0,0,2.56-3.48,19.79,19.79,0,0,0,1.42-4.16h7a32.32,32.32,0,0,1-1.25,4.73,20.15,20.15,0,0,1-2.27,4.41,21.59,21.59,0,0,1-4,4.41,19.71,19.71,0,0,1-6.12,3.41A26,26,0,0,1,106.67,291.06Z"/><path class="cls-1" d="M140.8,290.35v-54h6.75v21.83H148a21.47,21.47,0,0,1,1.67-2.35,10.43,10.43,0,0,1,3.37-2.66,11.64,11.64,0,0,1,5.55-1.18,12.68,12.68,0,0,1,7,1.89,12.17,12.17,0,0,1,4.44,5.08,16.44,16.44,0,0,1,1.53,7.18v24.24h-6.76V266.54a9.38,9.38,0,0,0-2.09-6.26,7.51,7.51,0,0,0-6.08-2.49,8.08,8.08,0,0,0-5.19,1.6,9.47,9.47,0,0,0-3,4.2,15.73,15.73,0,0,0-1,5.51v21.25Z"/><path class="cls-1" d="M201.51,291.06a17.67,17.67,0,0,1-10.17-2.8,18.13,18.13,0,0,1-6.25-7.29,22,22,0,0,1,0-19,18.09,18.09,0,0,1,6.25-7.25,19.79,19.79,0,0,1,20.33,0,18.11,18.11,0,0,1,6.26,7.25,22.14,22.14,0,0,1,0,19,18.16,18.16,0,0,1-6.26,7.29A17.61,17.61,0,0,1,201.51,291.06Zm0-5.9a10.39,10.39,0,0,0,6.43-2,12.08,12.08,0,0,0,3.91-5.09,17.29,17.29,0,0,0,0-13.25,12,12,0,0,0-3.91-5.05,11.48,11.48,0,0,0-12.83,0,11.93,11.93,0,0,0-3.94,5.05,17.29,17.29,0,0,0,0,13.25,12,12,0,0,0,3.94,5.09A10.44,10.44,0,0,0,201.51,285.16Z"/><path class="cls-1" d="M235.85,245.49a4.3,4.3,0,0,1-4.41-4.33,4.31,4.31,0,0,1,1.24-3.13,4.43,4.43,0,0,1,7.57,3.13,4.13,4.13,0,0,1-1.28,3.05A4.21,4.21,0,0,1,235.85,245.49Zm-3.35,44.86V252.67h6.76v37.68Z"/><path class="cls-1" d="M270.18,291.06a18.43,18.43,0,0,1-8.1-1.67,16.55,16.55,0,0,1-5.79-4.48,19.51,19.51,0,0,1-3.49-6.29,22.17,22.17,0,0,1-1.17-7.11,22.41,22.41,0,0,1,1.14-7.07,19.42,19.42,0,0,1,3.44-6.29,16.58,16.58,0,0,1,5.8-4.52,18.76,18.76,0,0,1,8.17-1.67,18.5,18.5,0,0,1,7.54,1.35,14.32,14.32,0,0,1,4.8,3.38,15.36,15.36,0,0,1,2.7,4.05,24.49,24.49,0,0,1,1.46,4.73h-6.54a15,15,0,0,0-1.71-3.84,9.07,9.07,0,0,0-3-2.67,10.3,10.3,0,0,0-5.26-1.17,10.82,10.82,0,0,0-6.57,2,11.82,11.82,0,0,0-4,5.08,17.59,17.59,0,0,0,0,13.37,11.82,11.82,0,0,0,4,5.08,10.82,10.82,0,0,0,6.57,2,10.3,10.3,0,0,0,5.26-1.17,8.85,8.85,0,0,0,3-2.67,14.76,14.76,0,0,0,1.71-3.83h6.54a24.38,24.38,0,0,1-1.46,4.72,15.57,15.57,0,0,1-2.7,4.06,14.16,14.16,0,0,1-4.8,3.37A18.33,18.33,0,0,1,270.18,291.06Z"/><path class="cls-1" d="M315.18,291.06a17.77,17.77,0,0,1-8-1.67,15.44,15.44,0,0,1-5.54-4.51,20,20,0,0,1-3.24-6.29,23.86,23.86,0,0,1-1.06-7.08,24.52,24.52,0,0,1,1-7,19.1,19.1,0,0,1,3.2-6.33,15.67,15.67,0,0,1,5.47-4.52A17.26,17.26,0,0,1,314.9,252a16.35,16.35,0,0,1,8.53,2.21,15.24,15.24,0,0,1,5.83,6.54,24.56,24.56,0,0,1,2.13,10.87v2H304.16a15.35,15.35,0,0,0,1.53,5.86,10.63,10.63,0,0,0,3.73,4.26,11.54,11.54,0,0,0,10.49.65,9.47,9.47,0,0,0,2.88-2.25,12.4,12.4,0,0,0,1.85-3.19H331a22.9,22.9,0,0,1-1.63,4.26,15.47,15.47,0,0,1-2.7,3.59,14.88,14.88,0,0,1-4.55,3.06A16.86,16.86,0,0,1,315.18,291.06Zm-10.95-22.75h20.55a12.27,12.27,0,0,0-1.57-6,9.13,9.13,0,0,0-3.62-3.45,10.09,10.09,0,0,0-4.69-1.14,9.86,9.86,0,0,0-7.33,2.88A12.41,12.41,0,0,0,304.23,268.31Z"/></svg>